<svg width="26" height="26" viewBox="0 0 26 26" fill="none" xmlns="http://www.w3.org/2000/svg">
<rect width="26" height="26" rx="13" fill="#2C2C31"/>
<g clip-path="url(#clip0_277_959)">
<path d="M12.9997 14.75C13.9662 14.75 14.7497 13.9665 14.7497 13C14.7497 12.0335 13.9662 11.25 12.9997 11.25C12.0332 11.25 11.2497 12.0335 11.2497 13C11.2497 13.9665 12.0332 14.75 12.9997 14.75Z" stroke="url(#paint0_linear_277_959)" stroke-width="2" stroke-linecap="round" stroke-linejoin="round"/>
<path d="M17.3163 14.75C17.2387 14.9259 17.2155 15.1211 17.2498 15.3103C17.2842 15.4996 17.3744 15.6742 17.5088 15.8117L17.5438 15.8467C17.6523 15.955 17.7384 16.0837 17.7971 16.2253C17.8558 16.3669 17.886 16.5188 17.886 16.6721C17.886 16.8254 17.8558 16.9772 17.7971 17.1188C17.7384 17.2605 17.6523 17.3891 17.5438 17.4975C17.4355 17.606 17.3068 17.692 17.1652 17.7507C17.0236 17.8094 16.8717 17.8397 16.7184 17.8397C16.5651 17.8397 16.4133 17.8094 16.2717 17.7507C16.13 17.692 16.0014 17.606 15.893 17.4975L15.858 17.4625C15.7205 17.328 15.5459 17.2378 15.3567 17.2035C15.1675 17.1692 14.9723 17.1923 14.7963 17.27C14.6238 17.3439 14.4767 17.4667 14.373 17.6232C14.2694 17.7797 14.2138 17.9631 14.213 18.1508V18.25C14.213 18.5594 14.0901 18.8562 13.8713 19.075C13.6525 19.2937 13.3558 19.4167 13.0463 19.4167C12.7369 19.4167 12.4402 19.2937 12.2214 19.075C12.0026 18.8562 11.8797 18.5594 11.8797 18.25V18.1975C11.8752 18.0044 11.8127 17.8172 11.7003 17.6601C11.588 17.503 11.4309 17.3833 11.2497 17.3167C11.0737 17.239 10.8786 17.2158 10.6893 17.2502C10.5001 17.2845 10.3255 17.3747 10.188 17.5092L10.153 17.5442C10.0447 17.6526 9.91599 17.7387 9.77435 17.7974C9.63272 17.8561 9.48091 17.8863 9.32759 17.8863C9.17427 17.8863 9.02246 17.8561 8.88083 17.7974C8.7392 17.7387 8.61053 17.6526 8.50217 17.5442C8.3937 17.4358 8.30765 17.3071 8.24894 17.1655C8.19023 17.0239 8.16001 16.8721 8.16001 16.7187C8.16001 16.5654 8.19023 16.4136 8.24894 16.272C8.30765 16.1304 8.3937 16.0017 8.50217 15.8933L8.53717 15.8583C8.67165 15.7208 8.76187 15.5462 8.79618 15.357C8.83049 15.1678 8.80733 14.9726 8.72967 14.7967C8.65573 14.6241 8.53295 14.477 8.37645 14.3733C8.21994 14.2697 8.03655 14.2141 7.84884 14.2133H7.74967C7.44026 14.2133 7.14351 14.0904 6.92472 13.8716C6.70592 13.6528 6.58301 13.3561 6.58301 13.0467C6.58301 12.7372 6.70592 12.4405 6.92472 12.2217C7.14351 12.0029 7.44026 11.88 7.74967 11.88H7.80217C7.99525 11.8755 8.18251 11.813 8.3396 11.7006C8.49669 11.5883 8.61634 11.4313 8.68301 11.25C8.76066 11.0741 8.78382 10.8789 8.74951 10.6897C8.7152 10.5004 8.62499 10.3258 8.49051 10.1883L8.45551 10.1533C8.34704 10.045 8.26098 9.91631 8.20227 9.77468C8.14356 9.63304 8.11334 9.48123 8.11334 9.32791C8.11334 9.17459 8.14356 9.02278 8.20227 8.88115C8.26098 8.73952 8.34704 8.61085 8.45551 8.5025C8.56386 8.39402 8.69253 8.30797 8.83416 8.24926C8.97579 8.19055 9.12761 8.16033 9.28092 8.16033C9.43424 8.16033 9.58606 8.19055 9.72769 8.24926C9.86932 8.30797 9.99799 8.39402 10.1063 8.5025L10.1413 8.53749C10.2788 8.67197 10.4534 8.76219 10.6427 8.7965C10.8319 8.83081 11.0271 8.80765 11.203 8.72999H11.2497C11.4222 8.65605 11.5694 8.53327 11.673 8.37677C11.7766 8.22026 11.8323 8.03687 11.833 7.84916V7.74999C11.833 7.44058 11.9559 7.14383 12.1747 6.92504C12.3935 6.70624 12.6903 6.58333 12.9997 6.58333C13.3091 6.58333 13.6058 6.70624 13.8246 6.92504C14.0434 7.14383 14.1663 7.44058 14.1663 7.74999V7.80249C14.1671 7.9902 14.2227 8.1736 14.3264 8.3301C14.43 8.4866 14.5771 8.60938 14.7497 8.68333C14.9256 8.76098 15.1208 8.78414 15.31 8.74983C15.4992 8.71552 15.6739 8.62531 15.8113 8.49083L15.8463 8.45583C15.9547 8.34736 16.0834 8.2613 16.225 8.20259C16.3666 8.14388 16.5184 8.11366 16.6718 8.11366C16.8251 8.11366 16.9769 8.14388 17.1185 8.20259C17.2602 8.2613 17.3888 8.34736 17.4972 8.45583C17.6056 8.56418 17.6917 8.69285 17.7504 8.83448C17.8091 8.97611 17.8393 9.12793 17.8393 9.28125C17.8393 9.43456 17.8091 9.58638 17.7504 9.72801C17.6917 9.86964 17.6056 9.99831 17.4972 10.1067L17.4622 10.1417C17.3277 10.2791 17.2375 10.4538 17.2032 10.643C17.1689 10.8322 17.192 11.0274 17.2697 11.2033V11.25C17.3436 11.4225 17.4664 11.5697 17.6229 11.6733C17.7794 11.777 17.9628 11.8326 18.1505 11.8333H18.2497C18.5591 11.8333 18.8558 11.9562 19.0746 12.175C19.2934 12.3938 19.4163 12.6906 19.4163 13C19.4163 13.3094 19.2934 13.6062 19.0746 13.825C18.8558 14.0437 18.5591 14.1667 18.2497 14.1667H18.1972C18.0095 14.1674 17.8261 14.223 17.6696 14.3267C17.5131 14.4303 17.3903 14.5775 17.3163 14.75Z" stroke="url(#paint1_linear_277_959)" stroke-width="2" stroke-linecap="round" stroke-linejoin="round"/>
</g>
<defs>
<linearGradient id="paint0_linear_277_959" x1="12.9997" y1="6.58333" x2="12.9997" y2="19.4167" gradientUnits="userSpaceOnUse">
<stop stop-color="#C7C7D9"/>
<stop offset="1" stop-color="#ABABB9"/>
</linearGradient>
<linearGradient id="paint1_linear_277_959" x1="12.9997" y1="6.58333" x2="12.9997" y2="19.4167" gradientUnits="userSpaceOnUse">
<stop stop-color="#C7C7D9"/>
<stop offset="1" stop-color="#ABABB9"/>
</linearGradient>
<clipPath id="clip0_277_959">
<rect width="14" height="14" fill="white" transform="translate(6 6)"/>
</clipPath>
</defs>
</svg>
