<svg width="26" height="26" viewBox="0 0 26 26" fill="none" xmlns="http://www.w3.org/2000/svg">
<rect width="26" height="26" rx="13" fill="#2C2C31"/>
<g clip-path="url(#clip0_277_924)">
<path d="M8.91699 15.9167H8.33366C8.02424 15.9167 7.72749 15.7937 7.5087 15.575C7.28991 15.3562 7.16699 15.0594 7.16699 14.75V8.91667C7.16699 8.60725 7.28991 8.3105 7.5087 8.09171C7.72749 7.87292 8.02424 7.75 8.33366 7.75H17.667C17.9764 7.75 18.2732 7.87292 18.4919 8.09171C18.7107 8.3105 18.8337 8.60725 18.8337 8.91667V14.75C18.8337 15.0594 18.7107 15.3562 18.4919 15.575C18.2732 15.7937 17.9764 15.9167 17.667 15.9167H17.0837M13.0003 14.75L15.917 18.25H10.0837L13.0003 14.75Z" stroke="url(#paint0_linear_277_924)" stroke-width="2" stroke-linecap="round" stroke-linejoin="round"/>
</g>
<defs>
<linearGradient id="paint0_linear_277_924" x1="13.0003" y1="7.75" x2="13.0003" y2="18.25" gradientUnits="userSpaceOnUse">
<stop stop-color="#C7C7D9"/>
<stop offset="1" stop-color="#ABABB9"/>
</linearGradient>
<clipPath id="clip0_277_924">
<rect width="14" height="14" fill="white" transform="translate(6 6)"/>
</clipPath>
</defs>
</svg>
