<svg width="16" height="16" viewBox="0 0 16 16" fill="none" xmlns="http://www.w3.org/2000/svg">
<g id="Trash 02">
<path id="Vector" d="M2 4H3.33333H14" stroke="url(#paint0_linear_277_2068)" stroke-width="2" stroke-linecap="round" stroke-linejoin="round"/>
<path id="Vector_2" d="M5.33301 3.99998V2.66665C5.33301 2.31302 5.47348 1.97389 5.72353 1.72384C5.97358 1.47379 6.31272 1.33331 6.66634 1.33331H9.33301C9.68663 1.33331 10.0258 1.47379 10.2758 1.72384C10.5259 1.97389 10.6663 2.31302 10.6663 2.66665V3.99998M6.66634 7.33331V11.3333M9.33301 7.33331V11.3333M12.6663 3.99998V13.3333C12.6663 13.6869 12.5259 14.0261 12.2758 14.2761C12.0258 14.5262 11.6866 14.6666 11.333 14.6666H4.66634C4.31272 14.6666 3.97358 14.5262 3.72353 14.2761C3.47348 14.0261 3.33301 13.6869 3.33301 13.3333V3.99998H12.6663Z" stroke="url(#paint1_linear_277_2068)" stroke-width="2" stroke-linecap="round" stroke-linejoin="round"/>
</g>
<defs>
<linearGradient id="paint0_linear_277_2068" x1="8" y1="4" x2="8" y2="5" gradientUnits="userSpaceOnUse">
<stop stop-color="#FF5B5B"/>
<stop offset="1" stop-color="#D63D3D"/>
</linearGradient>
<linearGradient id="paint1_linear_277_2068" x1="7.99967" y1="1.33331" x2="7.99967" y2="14.6666" gradientUnits="userSpaceOnUse">
<stop stop-color="#FF5B5B"/>
<stop offset="1" stop-color="#D63D3D"/>
</linearGradient>
</defs>
</svg>
