<svg width="26" height="26" viewBox="0 0 26 26" fill="none" xmlns="http://www.w3.org/2000/svg">
<rect width="26" height="26" rx="13" fill="#2C2C31"/>
<path d="M15.333 8.33334H16.4997C16.8091 8.33334 17.1058 8.45625 17.3246 8.67505C17.5434 8.89384 17.6663 9.19059 17.6663 9.50001V17.6667C17.6663 17.9761 17.5434 18.2728 17.3246 18.4916C17.1058 18.7104 16.8091 18.8333 16.4997 18.8333H9.49967C9.19026 18.8333 8.89351 18.7104 8.67472 18.4916C8.45592 18.2728 8.33301 17.9761 8.33301 17.6667V9.50001C8.33301 9.19059 8.45592 8.89384 8.67472 8.67505C8.89351 8.45625 9.19026 8.33334 9.49967 8.33334H10.6663M11.2497 7.16667H14.7497C15.0718 7.16667 15.333 7.42784 15.333 7.75001V8.91667C15.333 9.23884 15.0718 9.50001 14.7497 9.50001H11.2497C10.9275 9.50001 10.6663 9.23884 10.6663 8.91667V7.75001C10.6663 7.42784 10.9275 7.16667 11.2497 7.16667Z" stroke="url(#paint0_linear_277_965)" stroke-width="2" stroke-linecap="round" stroke-linejoin="round"/>
<defs>
<linearGradient id="paint0_linear_277_965" x1="12.9997" y1="7.16667" x2="12.9997" y2="18.8333" gradientUnits="userSpaceOnUse">
<stop stop-color="#C7C7D9"/>
<stop offset="1" stop-color="#ABABB9"/>
</linearGradient>
</defs>
</svg>
