<svg width="14" height="14" viewBox="0 0 14 14" fill="none" xmlns="http://www.w3.org/2000/svg">
<g clip-path="url(#clip0_592_1217)">
<path d="M9.91699 1.75009C10.0702 1.59689 10.2521 1.47535 10.4523 1.39244C10.6524 1.30952 10.867 1.26685 11.0837 1.26685C11.3003 1.26685 11.5149 1.30952 11.7151 1.39244C11.9152 1.47535 12.0971 1.59689 12.2503 1.75009C12.4035 1.9033 12.5251 2.08519 12.608 2.28537C12.6909 2.48554 12.7336 2.70009 12.7336 2.91676C12.7336 3.13343 12.6909 3.34798 12.608 3.54816C12.5251 3.74833 12.4035 3.93022 12.2503 4.08343L4.37533 11.9584L1.16699 12.8334L2.04199 9.62509L9.91699 1.75009Z" stroke="url(#paint0_linear_592_1217)" stroke-width="2" stroke-linecap="round" stroke-linejoin="round"/>
</g>
<defs>
<linearGradient id="paint0_linear_592_1217" x1="6.95028" y1="1.26685" x2="6.95028" y2="12.8334" gradientUnits="userSpaceOnUse">
<stop stop-color="#C7C7D9"/>
<stop offset="1" stop-color="#ABABB9"/>
<stop offset="1" stop-color="#ABABB9"/>
</linearGradient>
<clipPath id="clip0_592_1217">
<rect width="14" height="14" fill="white"/>
</clipPath>
</defs>
</svg>
