<svg width="23" height="22" viewBox="0 0 23 22" fill="none" xmlns="http://www.w3.org/2000/svg">
<path d="M16.855 5.5H16.8661M6.35498 1H16.355C19.1164 1 21.355 3.23858 21.355 6V16C21.355 18.7614 19.1164 21 16.355 21H6.35498C3.59356 21 1.35498 18.7614 1.35498 16V6C1.35498 3.23858 3.59356 1 6.35498 1ZM15.355 10.37C15.4784 11.2022 15.3363 12.0522 14.9488 12.799C14.5613 13.5458 13.9482 14.1514 13.1966 14.5297C12.4451 14.9079 11.5935 15.0396 10.7628 14.9059C9.93213 14.7723 9.16477 14.3801 8.56985 13.7852C7.97492 13.1902 7.58274 12.4229 7.44907 11.5922C7.31541 10.7616 7.44707 9.90989 7.82533 9.15837C8.20359 8.40685 8.80919 7.79374 9.55599 7.40624C10.3028 7.01874 11.1528 6.87658 11.985 7C12.8339 7.12588 13.6199 7.52146 14.2267 8.1283C14.8335 8.73515 15.2291 9.52107 15.355 10.37Z" stroke="#FFFBFB" stroke-width="2" stroke-linecap="round" stroke-linejoin="round"/>
</svg>
