<svg width="29" height="21" viewBox="0 0 29 21" fill="none" xmlns="http://www.w3.org/2000/svg">
<path d="M27.3425 1.01065C26.2113 1.72589 24.9588 2.27293 23.6334 2.63072C22.9219 1.89746 21.9765 1.37775 20.9248 1.14187C19.8731 0.905989 18.766 0.965323 17.7532 1.31185C16.7404 1.65837 15.8707 2.27536 15.2618 3.07938C14.6529 3.88339 14.3342 4.83564 14.3487 5.80732V6.86619C12.2728 6.91444 10.2159 6.50174 8.36098 5.66485C6.50611 4.82795 3.71748 2.06952 3.71748 2.06952C3.71748 2.06952 -1.00752 11.5993 9.62373 15.8348C7.19098 17.3151 4.29293 18.0573 1.35498 17.9525C11.9862 23.2469 24.98 17.9525 24.98 5.77556C24.9789 5.48061 24.9473 5.1864 24.8855 4.8967C26.0911 3.83094 26.9418 2.48535 27.3425 1.01065Z" stroke="white" stroke-width="2" stroke-linecap="round" stroke-linejoin="round"/>
</svg>
